<svg width="1200" height="414" viewBox="0 0 1200 414" fill="none" xmlns="http://www.w3.org/2000/svg">
<path d="M758.712 293.731C751.729 293.731 746.068 287.982 746.068 280.889C746.068 273.795 751.729 268.044 758.712 268.044H795.896C802.88 268.044 808.54 273.795 808.54 280.889C808.54 287.982 802.88 293.731 795.896 293.731H758.712ZM764.82 348.084C764.82 359.422 755.772 368.611 744.611 368.611H738.795C727.633 368.611 718.584 359.422 718.584 348.084V348.083C718.584 336.745 727.633 327.555 738.795 327.555H744.611C755.772 327.555 764.82 336.745 764.82 348.083V348.084ZM679.231 181.222C679.231 174.13 684.891 168.379 691.873 168.379H729.059C736.041 168.379 741.701 174.13 741.701 181.222C741.701 188.315 736.041 194.066 729.059 194.066H691.873C684.891 194.066 679.231 188.315 679.231 181.222ZM779.26 130.533H791.531C798.513 130.533 804.175 136.289 804.175 143.379C804.175 150.472 798.513 156.222 791.531 156.222H779.26C772.277 156.222 766.617 150.472 766.617 143.379C766.617 136.289 772.277 130.533 779.26 130.533ZM881.655 394.298H910.325C917.308 394.298 922.969 388.548 922.969 381.456C922.969 374.361 917.308 368.611 910.325 368.611H816.783C805.621 368.611 796.573 359.422 796.573 348.083C796.573 336.745 805.621 327.555 816.783 327.555H958.361C965.344 327.555 971.004 321.804 971.004 314.711C971.004 307.617 965.344 301.868 958.361 301.868H853.304C842.141 301.868 833.093 292.677 833.093 281.34C833.093 270.002 842.141 260.809 853.304 260.809H910.771C917.752 260.809 923.415 255.06 923.415 247.967C923.415 240.874 917.752 235.125 910.771 235.125H903.28C892.119 235.125 883.071 225.933 883.071 214.594C883.071 203.257 874.021 194.065 862.86 194.065H788.636C781.652 194.065 775.992 188.315 775.992 181.222C775.992 174.13 781.652 168.379 788.636 168.379H843.829C854.991 168.379 864.039 159.188 864.039 147.85C864.039 136.519 873.088 127.323 884.251 127.323H922.921C929.904 127.323 935.565 121.567 935.565 114.484C935.565 107.387 929.904 101.631 922.921 101.631H716.903C705.741 101.631 696.693 92.448 696.693 81.112C696.693 69.7624 705.741 60.5799 716.903 60.5799H897.2C904.183 60.5799 909.844 54.8237 909.844 47.7404C909.844 40.6436 904.183 34.8876 897.2 34.8876H821.364C810.203 34.8876 801.153 25.705 801.153 14.369C801.153 9.19532 803.049 4.4821 806.156 0.86595H0V413.954H861.488C861.943 403.023 870.784 394.298 881.655 394.298Z" fill="white"/>
<path d="M744.611 327.555H738.795C727.633 327.555 718.584 336.745 718.584 348.083V348.084C718.584 359.422 727.633 368.611 738.795 368.611H744.611C755.772 368.611 764.82 359.422 764.82 348.084V348.083C764.82 336.745 755.772 327.555 744.611 327.555Z" fill="url(#paint0_linear)"/>
<path d="M801.153 14.369C801.153 25.705 810.203 34.8876 821.364 34.8876H897.2C904.183 34.8876 909.844 40.6435 909.844 47.7404C909.844 54.8237 904.183 60.5799 897.2 60.5799H716.903C705.741 60.5799 696.693 69.7624 696.693 81.112C696.693 92.448 705.741 101.631 716.903 101.631H922.921C929.904 101.631 935.565 107.387 935.565 114.484C935.565 121.567 929.904 127.323 922.921 127.323H884.251C873.088 127.323 864.039 136.519 864.039 147.85C864.039 159.188 854.991 168.379 843.829 168.379H788.636C781.652 168.379 775.992 174.13 775.992 181.222C775.992 188.315 781.652 194.065 788.636 194.065H862.86C874.021 194.065 883.071 203.257 883.071 214.594C883.071 225.933 892.119 235.125 903.28 235.125H910.771C917.752 235.125 923.415 240.874 923.415 247.967C923.415 255.06 917.752 260.809 910.771 260.809H853.304C842.141 260.809 833.093 270.002 833.093 281.34C833.093 292.677 842.141 301.868 853.304 301.868H958.361C965.344 301.868 971.004 307.617 971.004 314.711C971.004 321.804 965.344 327.555 958.361 327.555H816.783C805.621 327.555 796.573 336.745 796.573 348.083C796.573 359.422 805.621 368.611 816.783 368.611H910.325C917.308 368.611 922.969 374.361 922.969 381.456C922.969 388.548 917.308 394.298 910.325 394.298H881.655C870.784 394.298 861.943 403.023 861.488 413.954H1200V0.865936H806.156C803.049 4.48209 801.153 9.1953 801.153 14.369Z" fill="url(#paint1_linear)"/>
<path d="M741.701 181.222C741.701 174.13 736.041 168.379 729.058 168.379H691.873C684.89 168.379 679.23 174.13 679.23 181.222C679.23 188.315 684.89 194.066 691.873 194.066H729.058C736.041 194.066 741.701 188.315 741.701 181.222Z" fill="url(#paint2_linear)"/>
<path d="M808.54 280.889C808.54 273.794 802.88 268.044 795.896 268.044H758.712C751.729 268.044 746.068 273.794 746.068 280.889C746.068 287.981 751.729 293.731 758.712 293.731H795.896C802.88 293.731 808.54 287.981 808.54 280.889Z" fill="url(#paint3_linear)"/>
<path d="M779.26 156.222H791.531C798.513 156.222 804.175 150.472 804.175 143.379C804.175 136.289 798.513 130.533 791.531 130.533H779.26C772.277 130.533 766.617 136.289 766.617 143.379C766.617 150.472 772.277 156.222 779.26 156.222Z" fill="white"/>
<path d="M779.26 156.222H791.531C798.513 156.222 804.175 150.472 804.175 143.379C804.175 136.289 798.513 130.533 791.531 130.533H779.26C772.277 130.533 766.617 136.289 766.617 143.379C766.617 150.472 772.277 156.222 779.26 156.222Z" fill="url(#paint4_linear)"/>
<path d="M275.688 152C277.125 152 278.312 152.5 279.25 153.5C280.25 154.5 280.75 155.688 280.75 157.062V202.906C280.75 203.844 280.406 204.656 279.719 205.344C279.031 206.031 278.219 206.375 277.281 206.375C276.344 206.375 275.531 206.031 274.844 205.344C274.156 204.656 273.812 203.844 273.812 202.906V159.312L256 203.188C255.625 204.125 255 204.906 254.125 205.531C253.25 206.094 252.25 206.375 251.125 206.375C250 206.375 249 206.094 248.125 205.531C247.25 204.969 246.594 204.188 246.156 203.188L228.438 159.312V202.906C228.438 203.844 228.094 204.656 227.406 205.344C226.719 206.031 225.875 206.375 224.875 206.375C223.938 206.375 223.125 206.031 222.438 205.344C221.75 204.656 221.406 203.844 221.406 202.906V157.062C221.406 155.688 221.875 154.5 222.812 153.5C223.812 152.5 225.031 152 226.469 152H229C230 152 230.906 152.312 231.719 152.938C232.594 153.562 233.25 154.312 233.688 155.188L251.125 198.688L268.562 155.188C268.938 154.312 269.531 153.562 270.344 152.938C271.219 152.312 272.188 152 273.25 152H275.688ZM309.344 200.281C313.844 200.281 318.062 197.844 322 192.969V169.906C322 168.969 322.312 168.156 322.938 167.469C323.625 166.781 324.469 166.438 325.469 166.438C326.406 166.438 327.219 166.781 327.906 167.469C328.594 168.094 328.938 168.906 328.938 169.906V202.812C328.938 203.812 328.594 204.656 327.906 205.344C327.281 206.031 326.469 206.375 325.469 206.375C324.531 206.375 323.719 206.031 323.031 205.344C322.344 204.656 322 203.812 322 202.812V199.719C319.938 201.844 318.156 203.344 316.656 204.219C313.781 205.906 311 206.75 308.312 206.75C305.688 206.75 303.5 206.344 301.75 205.531C300.062 204.719 298.656 203.656 297.531 202.344C295.156 199.531 293.969 196 293.969 191.75V169.906C293.969 168.969 294.281 168.156 294.906 167.469C295.594 166.781 296.438 166.438 297.438 166.438C298.375 166.438 299.188 166.781 299.875 167.469C300.562 168.094 300.906 168.906 300.906 169.906V190.906C300.906 193.781 301.562 196.062 302.875 197.75C304.188 199.438 306.344 200.281 309.344 200.281ZM353.5 200.281C359.188 200.281 362 198.5 361.938 194.938C361.938 193.812 361.375 192.938 360.25 192.312C359.125 191.688 357.719 191.156 356.031 190.719C354.344 190.281 352.5 189.812 350.5 189.312C348.5 188.812 346.625 188.125 344.875 187.25C343.125 186.375 341.688 185.25 340.562 183.875C339.438 182.438 338.875 180.688 338.875 178.625C338.875 176.562 339.188 174.812 339.812 173.375C340.438 171.875 341.375 170.594 342.625 169.531C345.312 167.219 349.062 166.062 353.875 166.062C357.75 166.062 361.469 166.688 365.031 167.938C365.719 168.188 366.25 168.625 366.625 169.25C367.062 169.812 367.281 170.438 367.281 171.125C367.281 171.75 366.969 172.375 366.344 173C365.781 173.625 365.219 173.938 364.656 173.938C364.094 173.938 363.406 173.812 362.594 173.562C360.156 172.812 357.469 172.438 354.531 172.438C351.594 172.438 349.375 172.938 347.875 173.938C346.375 174.938 345.625 176.188 345.625 177.688C345.625 179.125 346.188 180.188 347.312 180.875C348.438 181.5 349.844 182.062 351.531 182.562C353.281 183.062 355.156 183.531 357.156 183.969C359.219 184.406 361.094 185.062 362.781 185.938C366.781 188 368.781 191.156 368.781 195.406C368.781 198.719 367.531 201.375 365.031 203.375C362.406 205.625 358.688 206.75 353.875 206.75C348.75 206.75 344.125 205.594 340 203.281C339.125 202.656 338.656 201.906 338.594 201.031C338.594 200.094 338.875 199.312 339.438 198.688C340.062 198 340.688 197.656 341.312 197.656C341.938 197.656 342.75 197.875 343.75 198.312C346.688 199.625 349.938 200.281 353.5 200.281ZM378.062 170C378.062 168.938 378.406 168.094 379.094 167.469C379.781 166.781 380.625 166.438 381.625 166.438C382.625 166.438 383.438 166.781 384.062 167.469C384.688 168.094 385 168.938 385 170V202.906C385 203.844 384.688 204.656 384.062 205.344C383.438 206.031 382.625 206.375 381.625 206.375C380.625 206.375 379.781 206.031 379.094 205.344C378.406 204.656 378.062 203.844 378.062 202.906V170ZM385.75 154.906C385.75 156.031 385.375 156.969 384.625 157.719C383.875 158.469 382.938 158.844 381.812 158.844H381.344C380.219 158.844 379.281 158.469 378.531 157.719C377.844 156.969 377.5 156.031 377.5 154.906V154.625C377.5 153.5 377.875 152.562 378.625 151.812C379.375 151.062 380.281 150.688 381.344 150.688H381.812C382.938 150.688 383.875 151.062 384.625 151.812C385.375 152.562 385.75 153.5 385.75 154.625V154.906ZM416.031 200.188C418.906 200.188 421.625 199.5 424.188 198.125C425.062 197.625 425.875 197.375 426.625 197.375C427.375 197.312 428.031 197.625 428.594 198.312C429.156 199 429.438 199.812 429.438 200.75C429.438 201.625 428.844 202.438 427.656 203.188C424.031 205.562 419.969 206.75 415.469 206.75C409.781 206.75 404.969 204.969 401.031 201.406C396.906 197.594 394.875 192.594 394.938 186.406C394.938 180.219 396.969 175.219 401.031 171.406C404.906 167.781 409.719 166 415.469 166.062C418.531 166.062 421.031 166.469 422.969 167.281C424.969 168.031 426.531 168.812 427.656 169.625C428.844 170.375 429.438 171.219 429.438 172.156C429.438 173.094 429.156 173.875 428.594 174.5C428.031 175.125 427.469 175.438 426.906 175.438C426.031 175.438 425.125 175.188 424.188 174.688C421.562 173.25 418.844 172.562 416.031 172.625C411.531 172.625 408.031 173.906 405.531 176.469C403.094 178.969 401.875 182.281 401.875 186.406C401.875 190.531 403.094 193.875 405.531 196.438C408.031 198.938 411.531 200.188 416.031 200.188ZM501.156 152C502.094 152 502.906 152.344 503.594 153.031C504.281 153.719 504.625 154.562 504.625 155.562V202.906C504.625 203.844 504.281 204.656 503.594 205.344C502.906 206.031 502.094 206.375 501.156 206.375C500.219 206.375 499.406 206.031 498.719 205.344C498.031 204.656 497.688 203.844 497.688 202.906V182.562H468.531V202.906C468.531 203.844 468.188 204.656 467.5 205.344C466.812 206.031 465.969 206.375 464.969 206.375C464.031 206.375 463.219 206.031 462.531 205.344C461.844 204.656 461.5 203.844 461.5 202.906V155.562C461.5 154.625 461.844 153.812 462.531 153.125C463.219 152.375 464.031 152 464.969 152C465.906 152 466.719 152.344 467.406 153.031C468.156 153.719 468.531 154.562 468.531 155.562V176H497.688V155.562C497.688 154.625 498.031 153.812 498.719 153.125C499.406 152.375 500.219 152 501.156 152ZM533.219 200.281C537.719 200.281 541.938 197.844 545.875 192.969V169.906C545.875 168.969 546.188 168.156 546.812 167.469C547.5 166.781 548.344 166.438 549.344 166.438C550.281 166.438 551.094 166.781 551.781 167.469C552.469 168.094 552.812 168.906 552.812 169.906V202.812C552.812 203.812 552.469 204.656 551.781 205.344C551.156 206.031 550.344 206.375 549.344 206.375C548.406 206.375 547.594 206.031 546.906 205.344C546.219 204.656 545.875 203.812 545.875 202.812V199.719C543.812 201.844 542.031 203.344 540.531 204.219C537.656 205.906 534.875 206.75 532.188 206.75C529.562 206.75 527.375 206.344 525.625 205.531C523.938 204.719 522.531 203.656 521.406 202.344C519.031 199.531 517.844 196 517.844 191.75V169.906C517.844 168.969 518.156 168.156 518.781 167.469C519.469 166.781 520.312 166.438 521.312 166.438C522.25 166.438 523.062 166.781 523.75 167.469C524.438 168.094 524.781 168.906 524.781 169.906V190.906C524.781 193.781 525.438 196.062 526.75 197.75C528.062 199.438 530.219 200.281 533.219 200.281ZM571.844 171.875C575.656 168 580.031 166.062 584.969 166.062C589.969 166.062 594.219 167.812 597.719 171.312C601.594 175.188 603.562 180.219 603.625 186.406C603.625 192.656 601.656 197.719 597.719 201.594C594.094 205.094 589.812 206.812 584.875 206.75C580 206.75 575.656 204.812 571.844 200.938V202.906C571.844 203.844 571.5 204.656 570.812 205.344C570.188 206.031 569.375 206.375 568.375 206.375C567.375 206.375 566.531 206.031 565.844 205.344C565.219 204.656 564.906 203.844 564.906 202.906V153.031C564.906 152.031 565.219 151.219 565.844 150.594C566.531 149.906 567.375 149.562 568.375 149.562C569.375 149.562 570.188 149.906 570.812 150.594C571.5 151.219 571.844 152.031 571.844 153.031V171.875ZM571.844 194.469C575.344 198.344 579.406 200.25 584.031 200.188C589.906 200.188 593.812 197.594 595.75 192.406C596.375 190.656 596.656 188.656 596.594 186.406C596.594 182.031 595.438 178.594 593.125 176.094C590.875 173.781 587.844 172.625 584.031 172.625C579.406 172.625 575.344 174.531 571.844 178.344V194.469Z" fill="url(#paint5_linear)"/>
<path d="M205 172.855V160.978L194.2 164.541V149.101H183.4V168.104L172.6 171.667V155.039H161.8V175.23L151 178.793V190.67L161.8 187.107V198.983L151 202.546V214.423L161.8 210.86V226.3H172.6V207.297L183.4 203.734V220.361H194.2V200.171L205 196.608V184.731L194.2 188.294V176.418L205 172.855ZM183.4 191.857L172.6 195.42V183.544L183.4 179.981V191.857Z" fill="black"/>
<path d="M135.92 262.24C135.488 262.24 135.072 262.168 134.672 262.024C134.272 261.88 133.944 261.624 133.688 261.256C133.432 260.888 133.304 260.376 133.304 259.72V248.848H135.44V259.456C135.44 259.824 135.52 260.088 135.68 260.248C135.84 260.408 136.096 260.488 136.448 260.488C136.592 260.488 136.744 260.472 136.904 260.44C137.064 260.408 137.216 260.368 137.36 260.32L137.648 261.88C137.344 262.024 137.048 262.12 136.76 262.168C136.472 262.216 136.192 262.24 135.92 262.24ZM142.472 262.24C142.04 262.24 141.624 262.168 141.224 262.024C140.824 261.88 140.496 261.624 140.24 261.256C139.984 260.888 139.856 260.376 139.856 259.72V248.848H141.992V259.456C141.992 259.824 142.072 260.088 142.232 260.248C142.392 260.408 142.648 260.488 143 260.488C143.144 260.488 143.296 260.472 143.456 260.44C143.616 260.408 143.768 260.368 143.912 260.32L144.2 261.88C143.896 262.024 143.6 262.12 143.312 262.168C143.024 262.216 142.744 262.24 142.472 262.24ZM146.777 262V248.848H148.913V254.536H148.985L154.457 248.848H156.953V248.92L153.089 252.832C154.385 252.944 155.369 253.4 156.041 254.2C156.729 254.984 157.073 256.024 157.073 257.32V262H154.937V257.368C154.937 256.472 154.673 255.76 154.145 255.232C153.633 254.704 152.769 254.416 151.553 254.368L148.913 257.056V262H146.777ZM164.247 262.24C162.839 262.24 161.759 261.92 161.007 261.28C160.271 260.624 159.903 259.688 159.903 258.472C159.903 257.144 160.383 256.12 161.343 255.4C162.319 254.68 163.895 254.256 166.071 254.128L168.375 253.984V253.24C168.375 252.2 168.135 251.464 167.655 251.032C167.191 250.584 166.407 250.36 165.303 250.36C164.503 250.36 163.735 250.472 162.999 250.696C162.279 250.904 161.591 251.2 160.935 251.584V249.592C161.399 249.352 162.023 249.128 162.807 248.92C163.607 248.712 164.503 248.608 165.495 248.608C167.175 248.608 168.423 248.976 169.239 249.712C170.071 250.432 170.487 251.568 170.487 253.12V262H168.375V255.76L166.359 255.904C164.727 256.016 163.599 256.272 162.975 256.672C162.367 257.072 162.063 257.656 162.063 258.424C162.063 259.144 162.287 259.672 162.735 260.008C163.199 260.344 163.839 260.512 164.655 260.512C165.183 260.512 165.647 260.44 166.047 260.296L166.383 261.904C166.079 262.016 165.743 262.096 165.375 262.144C165.023 262.208 164.647 262.24 164.247 262.24ZM168.001 246.76V241.696H170.113V246.76H168.001ZM176.542 262L172.438 248.848H174.598L178.15 260.152H178.438C178.822 260.152 179.198 260.064 179.566 259.888C179.934 259.696 180.246 259.456 180.502 259.168C180.982 258.64 181.334 257.976 181.558 257.176C181.782 256.36 181.894 255.56 181.894 254.776C181.894 253.448 181.59 252.408 180.982 251.656C180.39 250.888 179.566 250.504 178.51 250.504C178.078 250.504 177.71 250.56 177.406 250.672L176.878 248.968C177.214 248.872 177.526 248.808 177.814 248.776C178.118 248.744 178.39 248.728 178.63 248.728C180.198 248.728 181.454 249.184 182.398 250.096C182.958 250.64 183.366 251.32 183.622 252.136C183.894 252.952 184.03 253.856 184.03 254.848C184.03 256.096 183.838 257.208 183.454 258.184C183.07 259.144 182.59 259.912 182.014 260.488C181.55 260.952 180.982 261.32 180.31 261.592C179.638 261.864 178.782 262 177.742 262H176.542ZM190.968 262.24C190.024 262.24 189.144 262.152 188.328 261.976C187.528 261.784 186.848 261.56 186.288 261.304L186.912 259.576C187.424 259.784 188.032 259.984 188.736 260.176C189.456 260.368 190.216 260.464 191.016 260.464C191.864 260.464 192.568 260.304 193.128 259.984C193.688 259.664 193.968 259.2 193.968 258.592C193.968 258.048 193.744 257.6 193.296 257.248C192.848 256.896 192.128 256.568 191.136 256.264C190.128 255.944 189.272 255.608 188.568 255.256C187.88 254.888 187.352 254.456 186.984 253.96C186.632 253.448 186.456 252.816 186.456 252.064C186.456 251.072 186.864 250.248 187.68 249.592C188.496 248.936 189.8 248.608 191.592 248.608C192.36 248.608 193.08 248.68 193.752 248.824C194.44 248.952 194.976 249.136 195.36 249.376V251.176C194.96 250.984 194.408 250.8 193.704 250.624C193 250.448 192.272 250.36 191.52 250.36C190.448 250.36 189.688 250.528 189.24 250.864C188.808 251.184 188.592 251.552 188.592 251.968C188.592 252.32 188.688 252.616 188.88 252.856C189.088 253.096 189.432 253.328 189.912 253.552C190.408 253.776 191.072 254.032 191.904 254.32C192.672 254.576 193.376 254.872 194.016 255.208C194.656 255.544 195.16 255.968 195.528 256.48C195.912 256.976 196.104 257.616 196.104 258.4C196.104 259.072 195.936 259.704 195.6 260.296C195.28 260.872 194.744 261.344 193.992 261.712C193.24 262.064 192.232 262.24 190.968 262.24ZM201.631 262.24C201.007 262.24 200.399 262.176 199.807 262.048C199.231 261.92 198.615 261.68 197.959 261.328L198.631 259.696C198.983 259.904 199.383 260.088 199.831 260.248C200.279 260.392 200.799 260.464 201.391 260.464C202.575 260.464 203.495 260.032 204.151 259.168C204.823 258.288 205.159 257.024 205.159 255.376C205.159 253.76 204.815 252.528 204.127 251.68C203.455 250.816 202.415 250.384 201.007 250.384C200.495 250.384 199.975 250.44 199.447 250.552C198.919 250.664 198.455 250.832 198.055 251.056V249.256C198.519 249.016 199.023 248.848 199.567 248.752C200.127 248.656 200.687 248.608 201.247 248.608C202.687 248.608 203.855 248.896 204.751 249.472C205.647 250.032 206.303 250.816 206.719 251.824C207.135 252.832 207.343 254.016 207.343 255.376C207.343 257.488 206.863 259.16 205.903 260.392C204.959 261.624 203.535 262.24 201.631 262.24ZM217.139 262.24C216.115 262.24 215.227 262.04 214.475 261.64C213.739 261.224 213.235 260.648 212.963 259.912H212.867L212.747 262H210.995V248.848H213.131V256.456C213.131 257.672 213.443 258.64 214.067 259.36C214.691 260.08 215.571 260.44 216.707 260.44C218.579 260.44 219.515 259.464 219.515 257.512V248.848H221.651V257.656C221.651 259.24 221.251 260.4 220.451 261.136C219.667 261.872 218.563 262.24 217.139 262.24ZM228.522 262.24C228.09 262.24 227.674 262.168 227.274 262.024C226.874 261.88 226.546 261.624 226.29 261.256C226.034 260.888 225.906 260.376 225.906 259.72V248.848H228.042V259.456C228.042 259.824 228.122 260.088 228.282 260.248C228.442 260.408 228.698 260.488 229.05 260.488C229.194 260.488 229.346 260.472 229.506 260.44C229.666 260.408 229.818 260.368 229.962 260.32L230.25 261.88C229.946 262.024 229.65 262.12 229.362 262.168C229.074 262.216 228.794 262.24 228.522 262.24ZM237.019 262.24C235.611 262.24 234.499 261.872 233.683 261.136C232.883 260.4 232.483 259.232 232.483 257.632V248.848H234.619V257.512C234.619 259.464 235.571 260.44 237.475 260.44C238.595 260.44 239.459 260.08 240.067 259.36C240.691 258.64 241.003 257.672 241.003 256.456V248.848H243.139V262H241.363L241.267 260.056H241.147C240.859 260.696 240.355 261.224 239.635 261.64C238.931 262.04 238.059 262.24 237.019 262.24ZM232.922 246.76V245.824L234.674 245.056H237.866V243.112H239.642V245.056H241.37V243.112H243.122V246.76H232.922ZM237.495 241.696V240.856C237.815 240.776 238.159 240.648 238.527 240.472C238.879 240.296 239.055 240.032 239.055 239.68C239.055 239.312 238.871 239.128 238.503 239.128C238.247 239.128 237.983 239.208 237.711 239.368L237.279 238.264C237.567 238.072 237.895 237.944 238.263 237.88C238.615 237.816 238.895 237.784 239.103 237.784C239.519 237.784 239.895 237.896 240.231 238.12C240.567 238.328 240.735 238.688 240.735 239.2C240.735 239.328 240.719 239.472 240.688 239.632C240.655 239.792 240.599 239.944 240.52 240.088H243.543V241.696H237.495ZM251.858 262.24C250.13 262.24 248.834 261.792 247.97 260.896C247.122 259.984 246.698 258.56 246.698 256.624C246.698 256.304 246.706 255.96 246.722 255.592C246.754 255.208 246.786 254.832 246.818 254.464H251.858V256.144H248.834V256.624C248.834 257.632 248.946 258.424 249.17 259C249.394 259.56 249.722 259.952 250.154 260.176C250.602 260.4 251.154 260.512 251.81 260.512C252.53 260.512 253.154 260.376 253.682 260.104C254.21 259.832 254.618 259.336 254.906 258.616C255.194 257.896 255.338 256.864 255.338 255.52C255.338 253.76 255.034 252.464 254.426 251.632C253.834 250.8 252.802 250.384 251.33 250.384C250.562 250.384 249.826 250.488 249.122 250.696C248.434 250.888 247.77 251.168 247.13 251.536V249.544C247.61 249.288 248.242 249.072 249.026 248.896C249.81 248.704 250.666 248.608 251.594 248.608C253.002 248.608 254.138 248.896 255.002 249.472C255.882 250.032 256.522 250.832 256.922 251.872C257.322 252.896 257.522 254.112 257.522 255.52C257.522 256.928 257.338 258.136 256.97 259.144C256.602 260.152 256.002 260.92 255.17 261.448C254.354 261.976 253.25 262.24 251.858 262.24ZM261.175 262V248.848H263.311V254.536H263.383L268.855 248.848H271.351V248.92L267.487 252.832C268.783 252.944 269.767 253.4 270.439 254.2C271.127 254.984 271.471 256.024 271.471 257.32V262H269.335V257.368C269.335 256.472 269.071 255.76 268.543 255.232C268.031 254.704 267.167 254.416 265.951 254.368L263.311 257.056V262H261.175ZM278.789 262V252.664C278.789 251.88 278.605 251.304 278.237 250.936C277.885 250.568 277.285 250.384 276.437 250.384C275.861 250.384 275.317 250.464 274.805 250.624C274.309 250.768 273.829 250.976 273.365 251.248V249.328C273.685 249.168 274.141 249.008 274.733 248.848C275.325 248.688 276.029 248.608 276.845 248.608C278.093 248.608 279.085 248.888 279.821 249.448C280.557 250.008 280.925 250.976 280.925 252.352V262H278.789ZM288.395 262.24C286.987 262.24 285.907 261.92 285.155 261.28C284.419 260.624 284.051 259.688 284.051 258.472C284.051 257.144 284.531 256.12 285.491 255.4C286.467 254.68 288.043 254.256 290.219 254.128L292.523 253.984V253.24C292.523 252.2 292.283 251.464 291.803 251.032C291.339 250.584 290.555 250.36 289.451 250.36C288.651 250.36 287.883 250.472 287.147 250.696C286.427 250.904 285.739 251.2 285.083 251.584V249.592C285.547 249.352 286.171 249.128 286.955 248.92C287.755 248.712 288.651 248.608 289.643 248.608C290.283 248.608 290.851 248.664 291.347 248.776C291.859 248.888 292.283 249.08 292.619 249.352C292.891 249.224 293.123 249.048 293.315 248.824C293.507 248.6 293.603 248.32 293.603 247.984H295.691C295.691 248.592 295.515 249.104 295.163 249.52C294.827 249.936 294.395 250.256 293.867 250.48C294.139 250.768 294.331 251.136 294.443 251.584C294.571 252.032 294.635 252.544 294.635 253.12V262H292.523V255.76L290.507 255.904C288.875 256.016 287.747 256.272 287.123 256.672C286.515 257.072 286.211 257.656 286.211 258.424C286.211 259.144 286.435 259.672 286.883 260.008C287.347 260.344 287.987 260.512 288.803 260.512C289.331 260.512 289.795 260.44 290.195 260.296L290.531 261.904C290.227 262.016 289.891 262.096 289.523 262.144C289.171 262.208 288.795 262.24 288.395 262.24ZM303.209 262.24C301.481 262.24 300.185 261.792 299.321 260.896C298.473 259.984 298.049 258.56 298.049 256.624C298.049 256.304 298.057 255.96 298.073 255.592C298.105 255.208 298.137 254.832 298.169 254.464H303.209V256.144H300.185V256.624C300.185 257.632 300.297 258.424 300.521 259C300.745 259.56 301.073 259.952 301.505 260.176C301.953 260.4 302.505 260.512 303.161 260.512C303.881 260.512 304.505 260.376 305.033 260.104C305.561 259.832 305.969 259.336 306.257 258.616C306.545 257.896 306.689 256.864 306.689 255.52C306.689 253.76 306.385 252.464 305.777 251.632C305.185 250.8 304.153 250.384 302.681 250.384C301.913 250.384 301.177 250.488 300.473 250.696C299.785 250.888 299.121 251.168 298.481 251.536V249.544C298.961 249.288 299.593 249.072 300.377 248.896C301.161 248.704 302.017 248.608 302.945 248.608C304.353 248.608 305.489 248.896 306.353 249.472C307.233 250.032 307.873 250.832 308.273 251.872C308.673 252.896 308.873 254.112 308.873 255.52C308.873 256.928 308.689 258.136 308.321 259.144C307.953 260.152 307.353 260.92 306.521 261.448C305.705 261.976 304.601 262.24 303.209 262.24ZM316.871 262.24C315.463 262.24 314.351 261.872 313.535 261.136C312.735 260.4 312.335 259.232 312.335 257.632V248.848H314.471V257.512C314.471 259.464 315.423 260.44 317.327 260.44C318.447 260.44 319.311 260.08 319.919 259.36C320.543 258.64 320.855 257.672 320.855 256.456V248.848H322.991V262H321.215L321.119 260.056H320.999C320.711 260.696 320.207 261.224 319.487 261.64C318.783 262.04 317.911 262.24 316.871 262.24ZM331.541 262.24C330.261 262.24 329.253 261.944 328.517 261.352C327.797 260.744 327.285 259.928 326.981 258.904C326.693 257.88 326.549 256.752 326.549 255.52C326.549 253.712 326.797 252.312 327.293 251.32C327.789 250.312 328.477 249.608 329.357 249.208C330.253 248.808 331.285 248.608 332.453 248.608C334.373 248.608 335.765 249.024 336.629 249.856C337.509 250.688 337.949 251.816 337.949 253.24V262H335.837V253.432C335.837 252.44 335.589 251.688 335.093 251.176C334.597 250.648 333.741 250.384 332.525 250.384C331.789 250.384 331.125 250.52 330.533 250.792C329.957 251.064 329.501 251.568 329.165 252.304C328.845 253.04 328.685 254.12 328.685 255.544C328.685 256.472 328.773 257.312 328.949 258.064C329.141 258.8 329.469 259.384 329.933 259.816C330.397 260.248 331.045 260.464 331.877 260.464C332.117 260.464 332.341 260.448 332.549 260.416C332.757 260.384 332.957 260.336 333.149 260.272L333.365 261.928C333.109 262.04 332.813 262.12 332.477 262.168C332.157 262.216 331.845 262.24 331.541 262.24ZM346.378 262.24C344.97 262.24 343.858 261.872 343.042 261.136C342.242 260.4 341.842 259.232 341.842 257.632V248.848H343.978V257.512C343.978 259.464 344.93 260.44 346.834 260.44C347.954 260.44 348.818 260.08 349.426 259.36C350.05 258.64 350.362 257.672 350.362 256.456V248.848H352.498V262H350.722L350.626 260.056H350.506C350.218 260.696 349.714 261.224 348.994 261.64C348.29 262.04 347.418 262.24 346.378 262.24ZM361.217 262.24C359.873 262.24 358.833 261.936 358.097 261.328C357.361 260.704 356.849 259.864 356.561 258.808C356.273 257.736 356.129 256.52 356.129 255.16C356.129 252.824 356.457 251.152 357.113 250.144C357.785 249.12 358.745 248.608 359.993 248.608C360.553 248.608 361.025 248.704 361.409 248.896C361.809 249.088 362.089 249.408 362.249 249.856H362.345C362.505 249.392 362.793 249.072 363.209 248.896C363.625 248.704 364.113 248.608 364.673 248.608C365.713 248.608 366.513 248.888 367.073 249.448C367.649 249.992 367.937 250.832 367.937 251.968V262H365.801V251.992C365.801 251.368 365.665 250.944 365.393 250.72C365.121 250.496 364.777 250.384 364.361 250.384C363.897 250.384 363.553 250.496 363.329 250.72C363.121 250.944 362.993 251.312 362.945 251.824H361.601C361.537 251.264 361.369 250.888 361.097 250.696C360.825 250.488 360.521 250.384 360.185 250.384C359.545 250.384 359.065 250.76 358.745 251.512C358.425 252.248 358.265 253.472 358.265 255.184C358.265 256.288 358.345 257.232 358.505 258.016C358.681 258.8 359.001 259.408 359.465 259.84C359.929 260.256 360.601 260.464 361.481 260.464C361.801 260.464 362.065 260.448 362.273 260.416C362.481 260.384 362.681 260.344 362.873 260.296L363.089 261.928C362.849 262.04 362.561 262.12 362.225 262.168C361.889 262.216 361.553 262.24 361.217 262.24ZM375.515 262.24C374.571 262.24 373.691 262.152 372.875 261.976C372.075 261.784 371.395 261.56 370.835 261.304L371.459 259.576C371.971 259.784 372.579 259.984 373.283 260.176C374.003 260.368 374.763 260.464 375.563 260.464C376.411 260.464 377.115 260.304 377.675 259.984C378.235 259.664 378.515 259.2 378.515 258.592C378.515 258.048 378.291 257.6 377.843 257.248C377.395 256.896 376.675 256.568 375.683 256.264C374.675 255.944 373.819 255.608 373.115 255.256C372.427 254.888 371.899 254.456 371.531 253.96C371.179 253.448 371.003 252.816 371.003 252.064C371.003 251.072 371.411 250.248 372.227 249.592C373.043 248.936 374.347 248.608 376.139 248.608C376.907 248.608 377.627 248.68 378.299 248.824C378.987 248.952 379.523 249.136 379.907 249.376V251.176C379.507 250.984 378.955 250.8 378.251 250.624C377.547 250.448 376.819 250.36 376.067 250.36C374.995 250.36 374.235 250.528 373.787 250.864C373.355 251.184 373.139 251.552 373.139 251.968C373.139 252.32 373.235 252.616 373.427 252.856C373.635 253.096 373.979 253.328 374.459 253.552C374.955 253.776 375.619 254.032 376.451 254.32C377.219 254.576 377.923 254.872 378.563 255.208C379.203 255.544 379.707 255.968 380.075 256.48C380.459 256.976 380.651 257.616 380.651 258.4C380.651 259.072 380.483 259.704 380.147 260.296C379.827 260.872 379.291 261.344 378.539 261.712C377.787 262.064 376.779 262.24 375.515 262.24ZM370.43 246.76V245.824L372.182 245.056H378.638V243.112H380.654V245.824H380.63V246.76H370.43ZM388.194 262.24C386.466 262.24 385.17 261.792 384.306 260.896C383.458 259.984 383.034 258.56 383.034 256.624C383.034 256.304 383.042 255.96 383.058 255.592C383.09 255.208 383.122 254.832 383.154 254.464H388.194V256.144H385.17V256.624C385.17 257.632 385.282 258.424 385.506 259C385.73 259.56 386.058 259.952 386.49 260.176C386.938 260.4 387.49 260.512 388.146 260.512C388.866 260.512 389.49 260.376 390.018 260.104C390.546 259.832 390.954 259.336 391.242 258.616C391.53 257.896 391.674 256.864 391.674 255.52C391.674 253.76 391.37 252.464 390.762 251.632C390.17 250.8 389.138 250.384 387.666 250.384C386.898 250.384 386.162 250.488 385.458 250.696C384.77 250.888 384.106 251.168 383.466 251.536V249.544C383.946 249.288 384.578 249.072 385.362 248.896C386.146 248.704 387.002 248.608 387.93 248.608C389.338 248.608 390.474 248.896 391.338 249.472C392.218 250.032 392.858 250.832 393.258 251.872C393.658 252.896 393.858 254.112 393.858 255.52C393.858 256.928 393.674 258.136 393.306 259.144C392.938 260.152 392.338 260.92 391.506 261.448C390.69 261.976 389.586 262.24 388.194 262.24ZM401.975 262.24C400.247 262.24 398.951 261.792 398.087 260.896C397.239 259.984 396.815 258.56 396.815 256.624C396.815 256.304 396.823 255.96 396.839 255.592C396.871 255.208 396.903 254.832 396.935 254.464H401.975V256.144H398.951V256.624C398.951 257.632 399.063 258.424 399.287 259C399.511 259.56 399.839 259.952 400.271 260.176C400.719 260.4 401.271 260.512 401.927 260.512C402.647 260.512 403.271 260.376 403.799 260.104C404.327 259.832 404.735 259.336 405.023 258.616C405.311 257.896 405.455 256.864 405.455 255.52C405.455 253.76 405.151 252.464 404.543 251.632C403.951 250.8 402.919 250.384 401.447 250.384C400.679 250.384 399.943 250.488 399.239 250.696C398.551 250.888 397.887 251.168 397.247 251.536V249.544C397.727 249.288 398.359 249.072 399.143 248.896C399.927 248.704 400.783 248.608 401.711 248.608C403.119 248.608 404.255 248.896 405.119 249.472C405.999 250.032 406.639 250.832 407.039 251.872C407.439 252.896 407.639 254.112 407.639 255.52C407.639 256.928 407.455 258.136 407.087 259.144C406.719 260.152 406.119 260.92 405.287 261.448C404.471 261.976 403.367 262.24 401.975 262.24ZM415.636 262.24C414.228 262.24 413.116 261.872 412.3 261.136C411.5 260.4 411.1 259.232 411.1 257.632V248.848H413.236V257.512C413.236 259.464 414.188 260.44 416.092 260.44C417.212 260.44 418.076 260.08 418.684 259.36C419.308 258.64 419.62 257.672 419.62 256.456V248.848H421.756V262H419.98L419.884 260.056H419.764C419.476 260.696 418.972 261.224 418.252 261.64C417.548 262.04 416.676 262.24 415.636 262.24ZM429.131 262.24C428.699 262.24 428.283 262.168 427.883 262.024C427.483 261.88 427.155 261.624 426.899 261.256C426.643 260.888 426.515 260.376 426.515 259.72V246.952C426.515 246.056 426.635 245.392 426.875 244.96C427.131 244.528 427.427 244.192 427.763 243.952L427.739 243.856H423.563L424.115 242.176H430.883V243.856C430.291 243.856 429.771 244.048 429.323 244.432C428.875 244.816 428.651 245.52 428.651 246.544V259.456C428.651 259.824 428.731 260.088 428.891 260.248C429.051 260.408 429.307 260.488 429.659 260.488C429.803 260.488 429.955 260.472 430.115 260.44C430.275 260.408 430.427 260.368 430.571 260.32L430.859 261.88C430.555 262.024 430.259 262.12 429.971 262.168C429.683 262.216 429.403 262.24 429.131 262.24ZM436.45 262.24C435.042 262.24 433.962 261.92 433.21 261.28C432.474 260.624 432.106 259.688 432.106 258.472C432.106 257.144 432.586 256.12 433.546 255.4C434.522 254.68 436.098 254.256 438.274 254.128L440.578 253.984V253.24C440.578 252.2 440.338 251.464 439.858 251.032C439.394 250.584 438.61 250.36 437.506 250.36C436.706 250.36 435.938 250.472 435.202 250.696C434.482 250.904 433.794 251.2 433.138 251.584V249.592C433.602 249.352 434.226 249.128 435.01 248.92C435.81 248.712 436.706 248.608 437.698 248.608C439.378 248.608 440.626 248.976 441.442 249.712C442.274 250.432 442.69 251.568 442.69 253.12V262H440.578V255.76L438.562 255.904C436.93 256.016 435.802 256.272 435.178 256.672C434.57 257.072 434.266 257.656 434.266 258.424C434.266 259.144 434.49 259.672 434.938 260.008C435.402 260.344 436.042 260.512 436.858 260.512C437.386 260.512 437.85 260.44 438.25 260.296L438.586 261.904C438.282 262.016 437.946 262.096 437.578 262.144C437.226 262.208 436.85 262.24 436.45 262.24ZM451.121 262.24C449.713 262.24 448.601 261.872 447.785 261.136C446.985 260.4 446.585 259.232 446.585 257.632V248.848H448.721V257.512C448.721 259.464 449.673 260.44 451.577 260.44C452.697 260.44 453.561 260.08 454.169 259.36C454.793 258.64 455.105 257.672 455.105 256.456V248.848H457.241V262H455.465L455.369 260.056H455.249C454.961 260.696 454.457 261.224 453.737 261.64C453.033 262.04 452.161 262.24 451.121 262.24ZM453.287 247.456C453.175 247.28 453.087 247.056 453.023 246.784C452.943 246.496 452.903 246.216 452.903 245.944C452.903 245.608 452.975 245.296 453.119 245.008C453.263 244.704 453.519 244.456 453.887 244.264C454.255 244.072 454.767 243.976 455.423 243.976H458.711V245.632H455.975C455.655 245.632 455.399 245.696 455.207 245.824C455.015 245.936 454.919 246.136 454.919 246.424C454.919 246.536 454.943 246.656 454.991 246.784C455.023 246.912 455.071 247.04 455.135 247.168L453.287 247.456ZM468.133 262L465.757 248.848H467.941L468.877 254.56C468.957 255.024 469.037 255.624 469.117 256.36C469.197 257.096 469.293 257.968 469.405 258.976H469.477C469.685 257.952 469.885 257.072 470.077 256.336C470.285 255.6 470.461 254.984 470.605 254.488L472.213 248.848H473.965L475.597 254.488C475.741 254.984 475.909 255.6 476.101 256.336C476.309 257.072 476.517 257.952 476.725 258.976H476.821C476.917 257.968 477.005 257.096 477.085 256.36C477.165 255.624 477.245 255.024 477.325 254.56L478.285 248.848H480.469L478.093 262H476.005L473.797 254.848C473.685 254.448 473.573 254.032 473.461 253.6C473.365 253.168 473.269 252.6 473.173 251.896H473.077C472.965 252.6 472.853 253.176 472.741 253.624C472.629 254.056 472.509 254.464 472.381 254.848L470.221 262H468.133ZM487.101 262.24C486.157 262.24 485.277 262.152 484.461 261.976C483.661 261.784 482.981 261.56 482.421 261.304L483.045 259.576C483.557 259.784 484.165 259.984 484.869 260.176C485.589 260.368 486.349 260.464 487.149 260.464C487.997 260.464 488.701 260.304 489.261 259.984C489.821 259.664 490.101 259.2 490.101 258.592C490.101 258.048 489.877 257.6 489.429 257.248C488.981 256.896 488.261 256.568 487.269 256.264C486.261 255.944 485.405 255.608 484.701 255.256C484.013 254.888 483.485 254.456 483.117 253.96C482.765 253.448 482.589 252.816 482.589 252.064C482.589 251.072 482.997 250.248 483.813 249.592C484.629 248.936 485.933 248.608 487.725 248.608C488.493 248.608 489.213 248.68 489.885 248.824C490.573 248.952 491.109 249.136 491.493 249.376V251.176C491.093 250.984 490.541 250.8 489.837 250.624C489.133 250.448 488.405 250.36 487.653 250.36C486.581 250.36 485.821 250.528 485.373 250.864C484.941 251.184 484.725 251.552 484.725 251.968C484.725 252.32 484.821 252.616 485.013 252.856C485.221 253.096 485.565 253.328 486.045 253.552C486.541 253.776 487.205 254.032 488.037 254.32C488.805 254.576 489.509 254.872 490.149 255.208C490.789 255.544 491.293 255.968 491.661 256.48C492.045 256.976 492.237 257.616 492.237 258.4C492.237 259.072 492.069 259.704 491.733 260.296C491.413 260.872 490.877 261.344 490.125 261.712C489.373 262.064 488.365 262.24 487.101 262.24ZM485.52 246.76V245.704C485.84 245.64 486.168 245.552 486.504 245.44C486.84 245.312 487.12 245.152 487.344 244.96C487.568 244.752 487.68 244.504 487.68 244.216C487.68 244.024 487.624 243.864 487.512 243.736C487.384 243.592 487.192 243.52 486.936 243.52C486.776 243.52 486.616 243.552 486.456 243.616C486.28 243.68 486.128 243.736 486 243.784L485.52 242.464C485.84 242.208 486.2 242.04 486.6 241.96C486.984 241.88 487.296 241.84 487.536 241.84C488.176 241.84 488.68 242.016 489.048 242.368C489.4 242.72 489.576 243.168 489.576 243.712C489.576 243.984 489.528 244.24 489.432 244.48C489.336 244.704 489.216 244.904 489.072 245.08H492.96V246.76H485.52ZM499.78 262.24C498.052 262.24 496.756 261.792 495.892 260.896C495.044 259.984 494.62 258.56 494.62 256.624C494.62 256.304 494.628 255.96 494.644 255.592C494.676 255.208 494.708 254.832 494.74 254.464H499.78V256.144H496.756V256.624C496.756 257.632 496.868 258.424 497.092 259C497.316 259.56 497.644 259.952 498.076 260.176C498.524 260.4 499.076 260.512 499.732 260.512C500.452 260.512 501.076 260.376 501.604 260.104C502.132 259.832 502.54 259.336 502.828 258.616C503.116 257.896 503.26 256.864 503.26 255.52C503.26 253.76 502.956 252.464 502.348 251.632C501.756 250.8 500.724 250.384 499.252 250.384C498.484 250.384 497.748 250.488 497.044 250.696C496.356 250.888 495.692 251.168 495.052 251.536V249.544C495.532 249.288 496.164 249.072 496.948 248.896C497.732 248.704 498.588 248.608 499.516 248.608C500.924 248.608 502.06 248.896 502.924 249.472C503.804 250.032 504.444 250.832 504.844 251.872C505.244 252.896 505.444 254.112 505.444 255.52C505.444 256.928 505.26 258.136 504.892 259.144C504.524 260.152 503.924 260.92 503.092 261.448C502.276 261.976 501.172 262.24 499.78 262.24ZM515.241 262.24C514.217 262.24 513.329 262.04 512.577 261.64C511.841 261.224 511.337 260.648 511.065 259.912H510.969L510.849 262H509.097V248.848H511.233V256.456C511.233 257.672 511.545 258.64 512.169 259.36C512.793 260.08 513.673 260.44 514.809 260.44C516.681 260.44 517.617 259.464 517.617 257.512V248.848H519.753V257.656C519.753 259.24 519.353 260.4 518.553 261.136C517.769 261.872 516.665 262.24 515.241 262.24ZM526.623 262.24C526.191 262.24 525.775 262.168 525.375 262.024C524.975 261.88 524.647 261.624 524.391 261.256C524.135 260.888 524.007 260.376 524.007 259.72V248.848H526.143V259.456C526.143 259.824 526.223 260.088 526.383 260.248C526.543 260.408 526.799 260.488 527.151 260.488C527.295 260.488 527.447 260.472 527.607 260.44C527.767 260.408 527.919 260.368 528.063 260.32L528.351 261.88C528.047 262.024 527.751 262.12 527.463 262.168C527.175 262.216 526.895 262.24 526.623 262.24ZM533.175 262.24C532.743 262.24 532.327 262.168 531.927 262.024C531.527 261.88 531.199 261.624 530.943 261.256C530.687 260.888 530.559 260.376 530.559 259.72V248.848H532.695V259.456C532.695 259.824 532.775 260.088 532.935 260.248C533.095 260.408 533.351 260.488 533.703 260.488C533.847 260.488 533.999 260.472 534.159 260.44C534.319 260.408 534.471 260.368 534.615 260.32L534.903 261.88C534.599 262.024 534.303 262.12 534.015 262.168C533.727 262.216 533.447 262.24 533.175 262.24ZM542.31 262.24C540.422 262.24 539.07 261.808 538.254 260.944C537.438 260.08 537.03 258.848 537.03 257.248V248.848H539.166V257.272C539.166 259.4 540.214 260.464 542.31 260.464C543.398 260.464 544.198 260.2 544.71 259.672C545.238 259.144 545.502 258.344 545.502 257.272V248.848H547.638V257.248C547.638 258.848 547.222 260.08 546.39 260.944C545.574 261.808 544.214 262.24 542.31 262.24ZM556.794 262.24C554.906 262.24 553.554 261.808 552.738 260.944C551.922 260.08 551.514 258.848 551.514 257.248V248.848H553.65V257.272C553.65 259.4 554.698 260.464 556.794 260.464C557.882 260.464 558.682 260.2 559.194 259.672C559.722 259.144 559.986 258.344 559.986 257.272V248.848H562.122V257.248C562.122 258.848 561.706 260.08 560.874 260.944C560.058 261.808 558.698 262.24 556.794 262.24ZM566.071 262V248.848H567.559L567.943 250.936H568.039C568.311 250.216 568.807 249.648 569.527 249.232C570.247 248.816 571.119 248.608 572.143 248.608C573.567 248.608 574.687 248.976 575.503 249.712C576.319 250.448 576.727 251.616 576.727 253.216V262H574.591V253.336C574.591 251.384 573.639 250.408 571.735 250.408C570.983 250.408 570.343 250.584 569.815 250.936C569.287 251.288 568.887 251.768 568.615 252.376C568.343 252.968 568.207 253.64 568.207 254.392V262H566.071ZM585.112 262.24C583.832 262.24 582.824 261.944 582.088 261.352C581.368 260.744 580.856 259.928 580.552 258.904C580.264 257.88 580.12 256.752 580.12 255.52C580.12 253.712 580.368 252.312 580.864 251.32C581.36 250.312 582.048 249.608 582.928 249.208C583.824 248.808 584.856 248.608 586.024 248.608C587.944 248.608 589.336 249.024 590.2 249.856C591.08 250.688 591.52 251.816 591.52 253.24V262H589.408V253.432C589.408 252.44 589.16 251.688 588.664 251.176C588.168 250.648 587.312 250.384 586.096 250.384C585.36 250.384 584.696 250.52 584.104 250.792C583.528 251.064 583.072 251.568 582.736 252.304C582.416 253.04 582.256 254.12 582.256 255.544C582.256 256.472 582.344 257.312 582.52 258.064C582.712 258.8 583.04 259.384 583.504 259.816C583.968 260.248 584.616 260.464 585.448 260.464C585.688 260.464 585.912 260.448 586.12 260.416C586.328 260.384 586.528 260.336 586.72 260.272L586.936 261.928C586.68 262.04 586.384 262.12 586.048 262.168C585.728 262.216 585.416 262.24 585.112 262.24ZM598.989 262.24C597.581 262.24 596.501 261.92 595.749 261.28C595.013 260.624 594.645 259.688 594.645 258.472C594.645 257.144 595.125 256.12 596.085 255.4C597.061 254.68 598.637 254.256 600.813 254.128L603.117 253.984V253.24C603.117 252.2 602.877 251.464 602.397 251.032C601.933 250.584 601.149 250.36 600.045 250.36C599.245 250.36 598.477 250.472 597.741 250.696C597.021 250.904 596.333 251.2 595.677 251.584V249.592C596.141 249.352 596.765 249.128 597.549 248.92C598.349 248.712 599.245 248.608 600.237 248.608C600.877 248.608 601.445 248.664 601.941 248.776C602.453 248.888 602.877 249.08 603.213 249.352C603.485 249.224 603.717 249.048 603.909 248.824C604.101 248.6 604.197 248.32 604.197 247.984H606.285C606.285 248.592 606.109 249.104 605.757 249.52C605.421 249.936 604.989 250.256 604.461 250.48C604.733 250.768 604.925 251.136 605.037 251.584C605.165 252.032 605.229 252.544 605.229 253.12V262H603.117V255.76L601.101 255.904C599.469 256.016 598.341 256.272 597.717 256.672C597.109 257.072 596.805 257.656 596.805 258.424C596.805 259.144 597.029 259.672 597.477 260.008C597.941 260.344 598.581 260.512 599.397 260.512C599.925 260.512 600.389 260.44 600.789 260.296L601.125 261.904C600.821 262.016 600.485 262.096 600.117 262.144C599.765 262.208 599.389 262.24 598.989 262.24ZM613.803 262.24C612.075 262.24 610.779 261.792 609.915 260.896C609.067 259.984 608.643 258.56 608.643 256.624C608.643 256.304 608.651 255.96 608.667 255.592C608.699 255.208 608.731 254.832 608.763 254.464H613.803V256.144H610.779V256.624C610.779 257.632 610.891 258.424 611.115 259C611.339 259.56 611.667 259.952 612.099 260.176C612.547 260.4 613.099 260.512 613.755 260.512C614.475 260.512 615.099 260.376 615.627 260.104C616.155 259.832 616.563 259.336 616.851 258.616C617.139 257.896 617.283 256.864 617.283 255.52C617.283 253.76 616.979 252.464 616.371 251.632C615.779 250.8 614.747 250.384 613.275 250.384C612.507 250.384 611.771 250.488 611.067 250.696C610.379 250.888 609.715 251.168 609.075 251.536V249.544C609.555 249.288 610.187 249.072 610.971 248.896C611.755 248.704 612.611 248.608 613.539 248.608C614.947 248.608 616.083 248.896 616.947 249.472C617.827 250.032 618.467 250.832 618.867 251.872C619.267 252.896 619.467 254.112 619.467 255.52C619.467 256.928 619.283 258.136 618.915 259.144C618.547 260.152 617.947 260.92 617.115 261.448C616.299 261.976 615.195 262.24 613.803 262.24ZM628.208 262.24C626.32 262.24 624.968 261.808 624.152 260.944C623.336 260.08 622.928 258.848 622.928 257.248V248.848H625.064V257.272C625.064 259.4 626.112 260.464 628.208 260.464C629.296 260.464 630.096 260.2 630.608 259.672C631.136 259.144 631.4 258.344 631.4 257.272V248.848H633.536V257.248C633.536 258.848 633.12 260.08 632.288 260.944C631.472 261.808 630.112 262.24 628.208 262.24Z" fill="#0F0F0F"/>
<defs>
<linearGradient id="paint0_linear" x1="431.526" y1="185.298" x2="1397.9" y2="676.835" gradientUnits="userSpaceOnUse">
<stop stop-color="#B4FFB7"/>
<stop offset="1" stop-color="#48A0D4"/>
</linearGradient>
<linearGradient id="paint1_linear" x1="548.901" y1="-45.4668" x2="1515.27" y2="446.071" gradientUnits="userSpaceOnUse">
<stop stop-color="#F5B4FF"/>
<stop offset="1" stop-color="#48A0D4"/>
</linearGradient>
<linearGradient id="paint2_linear" x1="491.933" y1="66.5389" x2="1458.3" y2="558.076" gradientUnits="userSpaceOnUse">
<stop stop-color="#FFB4FC"/>
<stop offset="1" stop-color="#48A0D4"/>
</linearGradient>
<linearGradient id="paint3_linear" x1="466.004" y1="117.517" x2="1432.37" y2="609.055" gradientUnits="userSpaceOnUse">
<stop stop-color="#B4FFB7"/>
<stop offset="1" stop-color="#48A0D4"/>
</linearGradient>
<linearGradient id="paint4_linear" x1="522.914" y1="5.61959" x2="1489.29" y2="497.158" gradientUnits="userSpaceOnUse">
<stop stop-color="#B4FFB7"/>
<stop offset="1" stop-color="#48A0D4"/>
</linearGradient>
<linearGradient id="paint5_linear" x1="411" y1="84" x2="411" y2="288" gradientUnits="userSpaceOnUse">
<stop stop-color="#533D57"/>
<stop offset="0.9999" stop-color="#0027F1" stop-opacity="0.520833"/>
<stop offset="1" stop-opacity="0"/>
</linearGradient>
</defs>
</svg>
